/* XPM */
static char * Game Boy Advance _ One Piece _ Collections (3)_xpm[] = {
"64 64 700 2",
"  	c #47ABA9",
". 	c #F8D030",
"+ 	c #CE9F0B",
"@ 	c #F9D131",
"# 	c #CEA00B",
"$ 	c #C89800",
"% 	c #EFC62A",
"& 	c #E7BC24",
"* 	c #CC9D06",
"= 	c #F9D130",
"- 	c #E1B620",
"; 	c #C79700",
"> 	c #C79600",
", 	c #E8BE25",
"' 	c #D7AA14",
") 	c #CC9D07",
"! 	c #E4BA25",
"~ 	c #F0C82E",
"{ 	c #F2CB37",
"] 	c #F9D448",
"^ 	c #D6AC3B",
"/ 	c #C79A33",
"( 	c #C89802",
"_ 	c #E4B922",
": 	c #F7CF2F",
"< 	c #F4CB2D",
"[ 	c #BA931C",
"} 	c #8B630C",
"| 	c #8C630B",
"1 	c #B69E5C",
"2 	c #FBEFA0",
"3 	c #CEC19E",
"4 	c #BBAC99",
"5 	c #C89812",
"6 	c #C99900",
"7 	c #875A00",
"8 	c #704000",
"9 	c #F7CF30",
"0 	c #E4BA27",
"a 	c #F8D136",
"b 	c #F8D135",
"c 	c #F8D034",
"d 	c #B08A1A",
"e 	c #6E3D00",
"f 	c #724612",
"g 	c #AA9763",
"h 	c #FBF3AA",
"i 	c #CCC4A8",
"j 	c #B9AFA4",
"k 	c #C7991F",
"l 	c #C8980E",
"m 	c #895C00",
"n 	c #724300",
"o 	c #D6A916",
"p 	c #F3CA2D",
"q 	c #ECC224",
"r 	c #F3D872",
"s 	c #F8E894",
"t 	c #F8E893",
"u 	c #E9D684",
"v 	c #A37C09",
"w 	c #865D0A",
"x 	c #754915",
"y 	c #DACE8E",
"z 	c #E6DC99",
"A 	c #FAF2A8",
"B 	c #B8B0A7",
"C 	c #BCAA92",
"D 	c #C1A373",
"E 	c #C99800",
"F 	c #B98A00",
"G 	c #B18300",
"H 	c #C69600",
"I 	c #F1C82B",
"J 	c #F9D026",
"K 	c #F8E383",
"L 	c #F8F1AA",
"M 	c #F9F2AA",
"N 	c #E3DA98",
"O 	c #621D00",
"P 	c #6B3500",
"Q 	c #734710",
"R 	c #F6EEA7",
"S 	c #FAF2AA",
"T 	c #F9F1A8",
"U 	c #CBC4A8",
"V 	c #B7AFA8",
"W 	c #B8B0AA",
"X 	c #BEA787",
"Y 	c #C89700",
"Z 	c #C29200",
"` 	c #CD9E08",
" .	c #E4B91F",
"..	c #F3E495",
"+.	c #F8EDA0",
"@.	c #F8E282",
"#.	c #F8EA99",
"$.	c #F8F0A8",
"%.	c #C4B57B",
"&.	c #C0B177",
"*.	c #CABC80",
"=.	c #C9BB80",
"-.	c #C9BB7F",
";.	c #BEAF75",
">.	c #D2C587",
",.	c #FAF2A9",
"'.	c #E6DEA8",
").	c #DCD4A8",
"!.	c #B9B1A8",
"~.	c #BEA786",
"{.	c #C19200",
"].	c #E0B51F",
"^.	c #CE9F09",
"/.	c #FBD331",
"(.	c #FAD22E",
"_.	c #F9D025",
":.	c #F8EC9D",
"<.	c #F8F1A9",
"[.	c #F8F0A9",
"}.	c #7D5728",
"|.	c #987E4E",
"1.	c #FCF4AB",
"2.	c #F7EFA7",
"3.	c #72450C",
"4.	c #A58F5C",
"5.	c #F6EEA8",
"6.	c #B9B2A8",
"7.	c #C29300",
"8.	c #EAC026",
"9.	c #DBAF1A",
"0.	c #CA9B04",
"a.	c #D4A613",
"b.	c #DCB01B",
"c.	c #BA8D08",
"d.	c #B38606",
"e.	c #D3AD24",
"f.	c #E5C551",
"g.	c #F8DD6F",
"h.	c #F8EDA1",
"i.	c #B9A971",
"j.	c #F9F1A9",
"k.	c #B6A46D",
"l.	c #CABD80",
"m.	c #F5EDA8",
"n.	c #B48600",
"o.	c #AB7E00",
"p.	c #FCD431",
"q.	c #9C7613",
"r.	c #703F00",
"s.	c #6D3A00",
"t.	c #BEAE75",
"u.	c #F9F2A9",
"v.	c #865900",
"w.	c #6E3E00",
"x.	c #F0C72B",
"y.	c #C59500",
"z.	c #BB8C00",
"A.	c #CCA117",
"B.	c #E8C12C",
"C.	c #956D10",
"D.	c #6E3B00",
"E.	c #F4ECA5",
"F.	c #E5DB98",
"G.	c #F2E9A3",
"H.	c #976A00",
"I.	c #CB9B05",
"J.	c #D1A310",
"K.	c #CE9F0A",
"L.	c #B68800",
"M.	c #744500",
"N.	c #764700",
"O.	c #764800",
"P.	c #784B02",
"Q.	c #7C5005",
"R.	c #734401",
"S.	c #E4DA97",
"T.	c #73450D",
"U.	c #D6CA8B",
"V.	c #C59600",
"W.	c #BE8F00",
"X.	c #CFA10D",
"Y.	c #D2A410",
"Z.	c #CB9C06",
"`.	c #B58700",
" +	c #6D3C00",
".+	c #754C27",
"++	c #774F2F",
"@+	c #704003",
"#+	c #E5DA98",
"$+	c #7A5222",
"%+	c #D7CB8C",
"&+	c #F2CA2C",
"*+	c #EAC127",
"=+	c #6B3800",
"-+	c #A09084",
";+	c #ADA299",
">+	c #724518",
",+	c #F5EDA5",
"'+	c #E9E09C",
")+	c #F3EBA4",
"!+	c #B58704",
"~+	c #6C3A00",
"{+	c #A79A8F",
"]+	c #B6ADA5",
"^+	c #73461A",
"/+	c #BDAD74",
"(+	c #D8AB17",
"_+	c #E9BF26",
":+	c #C69700",
"<+	c #795B00",
"[+	c #846E4D",
"}+	c #A7998F",
"|+	c #B3A9A1",
"1+	c #B5ADA4",
"2+	c #6F3E00",
"3+	c #8E7142",
"4+	c #A89460",
"5+	c #EEE5A0",
"6+	c #E2B721",
"7+	c #F8D130",
"8+	c #EFC62B",
"9+	c #C69500",
"0+	c #231800",
"a+	c #615F5E",
"b+	c #BCB4AC",
"c+	c #B9B2AA",
"d+	c #B6AEA6",
"e+	c #73461B",
"f+	c #6C3600",
"g+	c #693100",
"h+	c #631C00",
"i+	c #EBE29D",
"j+	c #BFA785",
"k+	c #C99700",
"l+	c #F4CC2D",
"m+	c #E2B821",
"n+	c #D3A512",
"o+	c #987300",
"p+	c #907440",
"q+	c #847F7A",
"r+	c #938379",
"s+	c #978376",
"t+	c #714310",
"u+	c #7B5525",
"v+	c #C5B77C",
"w+	c #C6B77C",
"x+	c #C2B379",
"y+	c #CBBD81",
"z+	c #C0A57C",
"A+	c #C69B38",
"B+	c #FAD231",
"C+	c #DDB11C",
"D+	c #CA9900",
"E+	c #AE8300",
"F+	c #000000",
"G+	c #5B2E00",
"H+	c #6F3C00",
"I+	c #6C3700",
"J+	c #815E30",
"K+	c #FDF5AC",
"L+	c #8B6C3E",
"M+	c #8A6B3C",
"N+	c #BAB2A9",
"O+	c #B8B1A9",
"P+	c #B7B1AB",
"Q+	c #C59D4F",
"R+	c #E9C026",
"S+	c #F6CE2F",
"T+	c #DCB11C",
"U+	c #B78B00",
"V+	c #775A00",
"W+	c #664300",
"X+	c #5E3500",
"Y+	c #A28C5A",
"Z+	c #EAE09C",
"`+	c #B4A36C",
" @	c #BBAB72",
".@	c #E7DFA8",
"+@	c #E5DDA8",
"@@	c #E2DAA7",
"#@	c #ABA39A",
"$@	c #B0A8A0",
"%@	c #B8B1AA",
"&@	c #C59D4E",
"*@	c #F3CB2D",
"=@	c #DCB01C",
"-@	c #735600",
";@	c #080000",
">@	c #6F3F00",
",@	c #E3D896",
"'@	c #672B00",
")@	c #EAE19C",
"!@	c #BFB7A8",
"~@	c #B8B0A8",
"{@	c #898179",
"]@	c #9D958E",
"^@	c #B9B1AA",
"/@	c #F4CC2E",
"(@	c #E1B720",
"_@	c #D1A30F",
":@	c #C99901",
"<@	c #876600",
"[@	c #594100",
"}@	c #663A00",
"|@	c #6A3C00",
"1@	c #E3D996",
"2@	c #D2C688",
"3@	c #907444",
"4@	c #E4DB9E",
"5@	c #EFE7A8",
"6@	c #EEE7A8",
"7@	c #BEB6A8",
"8@	c #BBB3A8",
"9@	c #C5BEA8",
"0@	c #BDB5A8",
"a@	c #C4BCA8",
"b@	c #C5BDA8",
"c@	c #BCB4A8",
"d@	c #9A928A",
"e@	c #B1AAA3",
"f@	c #C49C4B",
"g@	c #F5CC2E",
"h@	c #C49500",
"i@	c #BE9000",
"j@	c #2A1B00",
"k@	c #482700",
"l@	c #F5EDA6",
"m@	c #F3EAA3",
"n@	c #C6BEA7",
"o@	c #C8C0A8",
"p@	c #F7EFA8",
"q@	c #D1C9A8",
"r@	c #BAB2A8",
"s@	c #F2EAA8",
"t@	c #CBC3A8",
"u@	c #B5ADA6",
"v@	c #8A837D",
"w@	c #BE9438",
"x@	c #3F2E00",
"y@	c #4F3000",
"z@	c #693400",
"A@	c #DED392",
"B@	c #F3EAA4",
"C@	c #C3BBA8",
"D@	c #8D857D",
"E@	c #8A827A",
"F@	c #867F79",
"G@	c #BE9436",
"H@	c #B98C00",
"I@	c #987200",
"J@	c #1F0100",
"K@	c #856D41",
"L@	c #998158",
"M@	c #C1BAA8",
"N@	c #F0E8A8",
"O@	c #D3CBA8",
"P@	c #B1A9A1",
"Q@	c #A29B93",
"R@	c #867F78",
"S@	c #CC9C06",
"T@	c #A47C00",
"U@	c #613400",
"V@	c #774F32",
"W@	c #D8D0A8",
"X@	c #B9B1A9",
"Y@	c #A8A098",
"Z@	c #857E78",
"`@	c #704100",
" #	c #643800",
".#	c #73471C",
"+#	c #8D7565",
"@#	c #8D7464",
"##	c #B2A9A0",
"$#	c #E2DAA8",
"%#	c #C8C098",
"&#	c #847D78",
"*#	c #EDC429",
"=#	c #A37B00",
"-#	c #714000",
";#	c #6D3800",
">#	c #AFA59C",
",#	c #B5ADA8",
"'#	c #B6AEA8",
")#	c #F4ECA8",
"!#	c #FAF3A8",
"~#	c #FAF1A8",
"{#	c #D6CE97",
"]#	c #827B77",
"^#	c #BE9330",
"/#	c #CA9A00",
"(#	c #B68A00",
"_#	c #906C00",
":#	c #644200",
"<#	c #552F00",
"[#	c #6F3D00",
"}#	c #B0A59C",
"|#	c #DAD3A8",
"1#	c #DAD2A8",
"2#	c #DDB7AC",
"3#	c #E5C9AB",
"4#	c #DBD4A0",
"5#	c #9F9792",
"6#	c #BBA27E",
"7#	c #C1A372",
"8#	c #B28400",
"9#	c #CC9C05",
"0#	c #CB9B00",
"a#	c #644B00",
"b#	c #1D0D00",
"c#	c #6E3C00",
"d#	c #6A3200",
"e#	c #AEA39C",
"f#	c #C2BAA8",
"g#	c #F7EDA8",
"h#	c #B92DB0",
"i#	c #CD8AAD",
"j#	c #FAF4A6",
"k#	c #F9F2A7",
"l#	c #F9F2A8",
"m#	c #F9F2A6",
"n#	c #E2DBA7",
"o#	c #B6AEA9",
"p#	c #B8B0A9",
"q#	c #BAAEA1",
"r#	c #A57700",
"s#	c #EAC027",
"t#	c #AF8604",
"u#	c #AA8100",
"v#	c #AC8200",
"w#	c #644A00",
"x#	c #200F00",
"y#	c #A99560",
"z#	c #C9C0A0",
"A#	c #D5CDA8",
"B#	c #F7EEA8",
"C#	c #D095AD",
"D#	c #DAAAB5",
"E#	c #F2DAC6",
"F#	c #EAD0B2",
"G#	c #E8CEAC",
"H#	c #F1D9C5",
"I#	c #E4D2BA",
"J#	c #CEC6A7",
"K#	c #BAAE9F",
"L#	c #A57800",
"M#	c #C79800",
"N#	c #372600",
"O#	c #0A0200",
"P#	c #120B00",
"Q#	c #0F0900",
"R#	c #332400",
"S#	c #200E00",
"T#	c #6D3900",
"U#	c #F8EFA8",
"V#	c #F1D8C5",
"W#	c #E190FA",
"X#	c #C455C7",
"Y#	c #BB33B5",
"Z#	c #E090F7",
"`#	c #EABEDD",
" $	c #C7BFA8",
".$	c #D5AB1C",
"+$	c #B88C03",
"@$	c #584F42",
"#$	c #403D3A",
"$$	c #231000",
"%$	c #3D2700",
"&$	c #B88B00",
"*$	c #BF9100",
"=$	c #261910",
"-$	c #7C5A42",
";$	c #BDAE7E",
">$	c #F1E9A9",
",$	c #F6EEA6",
"'$	c #F0D7C1",
")$	c #DA83F1",
"!$	c #CA72C3",
"~$	c #C56BB4",
"{$	c #DA85EE",
"]$	c #E7B9D7",
"^$	c #AB7D00",
"/$	c #815300",
"($	c #FAD230",
"_$	c #A88C1C",
":$	c #3C2E13",
"<$	c #ADA59E",
"[$	c #9A938C",
"}$	c #5B3300",
"|$	c #6A3D00",
"1$	c #3B2A00",
"2$	c #866400",
"3$	c #393633",
"4$	c #B3AAA2",
"5$	c #B8B0A5",
"6$	c #F0E9A8",
"7$	c #7C5627",
"8$	c #CDC083",
"9$	c #E8CEAD",
"0$	c #B803B7",
"a$	c #E6CBAD",
"b$	c #F1E2AA",
"c$	c #BC3BB7",
"d$	c #D6A2B1",
"e$	c #C39300",
"f$	c #F8CF2F",
"g$	c #A2871B",
"h$	c #080C14",
"i$	c #B3ABA3",
"j$	c #9F9891",
"k$	c #6E3F00",
"l$	c #180700",
"m$	c #7F5F00",
"n$	c #3B3835",
"o$	c #692F00",
"p$	c #C6B87D",
"q$	c #F4EBA4",
"r$	c #B700B5",
"s$	c #E7CDAC",
"t$	c #F2E5A9",
"u$	c #BB36B4",
"v$	c #D5A1B0",
"w$	c #D4A612",
"x$	c #8A6B07",
"y$	c #0F1114",
"z$	c #653900",
"A$	c #936800",
"B$	c #CB9A00",
"C$	c #6C3800",
"D$	c #88683A",
"E$	c #987F4F",
"F$	c #987F4E",
"G$	c #957B4B",
"H$	c #DCD090",
"I$	c #EFD7C0",
"J$	c #D980EE",
"K$	c #CC7AC2",
"L$	c #C877B3",
"M$	c #D882EC",
"N$	c #E6B8D5",
"O$	c #826200",
"P$	c #101214",
"Q$	c #986B00",
"R$	c #682D00",
"S$	c #D4C789",
"T$	c #E18FFB",
"U$	c #C34FC8",
"V$	c #BA26B6",
"W$	c #E08EF8",
"X$	c #EABDDE",
"Y$	c #836200",
"Z$	c #805300",
"`$	c #9A6C00",
" %	c #4A3200",
".%	c #2C241E",
"+%	c #8F7868",
"@%	c #A3958A",
"#%	c #D5C88A",
"$%	c #A7925F",
"%%	c #9E8755",
"&%	c #B4A26C",
"*%	c #F6E8B3",
"=%	c #F0D4CB",
"-%	c #E7CAB4",
";%	c #E4C6AD",
">%	c #EFD3C9",
",%	c #F3DFBD",
"'%	c #F9F1A7",
")%	c #826100",
"!%	c #000014",
"~%	c #321900",
"{%	c #1B0A00",
"]%	c #958174",
"^%	c #FDF6AC",
"/%	c #6D3B00",
"(%	c #672F00",
"_%	c #6D3C08",
":%	c #F3EBA6",
"<%	c #F9F3A7",
"[%	c #FAF3A9",
"}%	c #C7BFAA",
"|%	c #805200",
"1%	c #9E7800",
"2%	c #8D6B14",
"3%	c #B6ADA3",
"4%	c #673A00",
"5%	c #532E00",
"6%	c #4E2B00",
"7%	c #512D00",
"8%	c #968275",
"9%	c #A18A58",
"0%	c #BF991F",
"a%	c #BE981F",
"b%	c #C09B26",
"c%	c #F6DF80",
"d%	c #F2DC82",
"e%	c #E3CE7F",
"f%	c #E4CE80",
"g%	c #E4CF80",
"h%	c #C7AF80",
"i%	c #C0A479",
"j%	c #C99914",
"k%	c #B9AFA5",
"l%	c #9F9892",
"m%	c #5E3400",
"n%	c #714100",
"o%	c #5A3100",
"p%	c #633700",
"q%	c #EAE19D",
"r%	c #642500",
"s%	c #6C3900",
"t%	c #9B7412",
"u%	c #FAD12C",
"v%	c #ECC121",
"w%	c #C89810",
"x%	c #BDA98D",
"y%	c #AA9A85",
"z%	c #635F5C",
"A%	c #624632",
"B%	c #603600",
"C%	c #624937",
"D%	c #65625E",
"E%	c #6E492B",
"F%	c #A89B92",
"G%	c #E4D491",
"H%	c #E3D287",
"I%	c #A47D10",
"J%	c #8B620C",
"K%	c #A17A15",
"L%	c #BB961E",
"M%	c #F0C82B",
"N%	c #ECC228",
"O%	c #DEB728",
"P%	c #D8B022",
"Q%	c #B88A00",
"R%	c #B78900",
"S%	c #C89813",
"T%	c #C39F5E",
"U%	c #69645F",
"V%	c #736D68",
"W%	c #846652",
"X%	c #70400A",
"Y%	c #6F4014",
"Z%	c #BF9114",
"`%	c #D1A41A",
" &	c #BD971E",
".&	c #EEC72D",
"+&	c #C79701",
"@&	c #7A4D02",
"#&	c #754702",
"$&	c #734400",
"%&	c #7F5200",
"&&	c #C49E56",
"*&	c #BBAFA1",
"=&	c #797168",
"-&	c #46423F",
";&	c #45423E",
">&	c #7F7974",
",&	c #BAB3AB",
"'&	c #846753",
")&	c #724200",
"!&	c #855A06",
"~&	c #8B630D",
"{&	c #B98B02",
"]&	c #C89B0D",
"^&	c #E5BE2B",
"/&	c #DBAF1B",
"(&	c #7E5000",
"_&	c #C49400",
":&	c #C09100",
"<&	c #C89919",
"[&	c #C79A30",
"}&	c #B7A48B",
"|&	c #B0A9A1",
"1&	c #7B4C00",
"2&	c #D8AD1D",
"3&	c #F1CA2E",
"4&	c #956C0D",
"5&	c #7F5202",
"6&	c #845B09",
"7&	c #89600B",
"8&	c #855700",
"9&	c #7C4D00",
"0&	c #BEA98C",
"a&	c #BAB0A7",
"b&	c #8A6D52",
"c&	c #835703",
"d&	c #DEB31E",
"e&	c #F6CF30",
"f&	c #8F670E",
"g&	c #C69C45",
"h&	c #C59E53",
"i&	c #C49D54",
"j&	c #DDB636",
"k&	c #E1B928",
"l&	c #B68A0A",
"m&	c #9C7513",
"n&	c #F0C629",
"o&	c #F5CD2E",
"p&	c #A77900",
"q&	c #6A3800",
"                                                                                                                                ",
"                                                                                                                                ",
"                                                                                                                                ",
"                                                                                                                                ",
"                  . . . . +                                                                                                     ",
"                . . . . @ # $                                                                                                   ",
"                . . . % & * $                                                                                                   ",
"              . . . = - ; $ $ $                                                                                                 ",
"              . . . = - ; $ $ $                                                                                                 ",
"              . . . = - ; $ $ $                                             > , . . . = ' $ $ $                                 ",
"              . . . = - ; $ $ $                                             ) ! ~ ~ { ] ^ / ( $                                 ",
"              . . . = - ; $ $ $                                   ; _ . . : < [ } | 1 2 3 4 5 $ 6 7 8                           ",
"              9 . . = - ; $ $ $                                   $ 0 a b c . d e f g h i j k l 6 m n                           ",
"              o p . = - ; $ $ $                         $ $ $     q r s t u v w x y z A i B C D E F G 8                         ",
"              H I . = - ; $ $ $                         ; ; ;     J K L M N O P Q R S T U V W X Y 6 Z 8 8                       ",
"              ; I . = - ; $ $ $                   $ $ ` _ _  ...+.@.#.$.%.&.*.=.-.;.>.,.'.).!.~.$ $ {.8 8                       ",
"              ; I . = ].H $ $ $                   ; 6 ^./.(._.:.$.<.[.$.}.|.1.S 2.3.4.S T 5.6.~.Y 6 7.8 8                       ",
"              > p . . 8.9.0.$ $                 a.b.c.d.e.f.g.h.$.$.$.$.i.%.j.$.R k.l.j.$.m.6.~.E n.o.8                         ",
"                = . . . . + $ $     $ $ 6 6 6 E b.p.q.r.s.t.u.$.$.$.$.$.$.$.j.$.$.$.$.$.$.m.6.~.6 v.w.                          ",
"                x.I . . . + $ $     $ y.z.z.z.z.A.B.C.8 D.t.u.$.$.$.$.$.$.E.F.G.$.$.$.$.$.m.6.~.E H.7                           ",
"                I.J.. . . K.$ $     $ L.M.N.N.O.P.Q.R.8 D.t.u.$.$.$.$.$.$.S.T.U.$.$.$.$.$.m.6.~.$ V.W.8                         ",
"                $ X.. . . Y.Z.$     $ `. +.+++@+8 8 8 8 D.t.u.$.$.$.$.$.$.#+$+%+$.$.$.$.$.m.6.~.$ $ {.r.                        ",
"                    . . . &+*+;     $ `.=+-+;+>+8 8 8 8 D.t.u.$.$.$.$.$.$.,+'+)+$.$.$.$.$.m.6.~.$ $ ;                           ",
"                    . . . . x.;     ; !+~+{+]+^+8 8 8 8 D./+$.$.$.$.$.$.$.$.j.$.$.$.$.$.$.m.6.~.$ $ $                           ",
"                    (+_+. . x.; $ :+<+[+}+|+1+^+8 8 8 8 2+3+4+5+$.$.$.$.$.$.$.$.$.$.$.$.$.m.6.~.$ $ $                           ",
"                    H 6+7+. 8+9+$ :+0+a+b+c+d+e+8 8 8 r.f+g+h+i+j.$.$.$.$.$.$.$.$.$.$.$.$.m.6.j+k+$ $                           ",
"                      *+. . l+m+n+; o+p+q+r+s+t+8 8 8 u+v+w+w+x+y+T $.$.$.$.$.$.$.$.$.$.$.m.!.4 z+A+$                           ",
"                      B+= . . B+C+$ D+E+F+G+H+8 8 8 I+J+u.h K+L+M+j.$.$.T T T T T T T T T 5.N+O+P+Q+$                           ",
"                      8.R+S+. = T+$ $ U+V+W+X+8 8 e Y+k.$.Z+%+`+ @j.$.$..@+@+@+@+@+@+@+@+@@@#@$@%@&@V.                          ",
"                      $ $ *@. = =@; $ $ D+-@;@>@8 P ,@$.j.-.'@)@$.T T $.!@~@V ~@~@~@V V ~@d+{@]@^@&@{.8 8                       ",
"                        $ /@. = (@_@:@$ D+<@[@}@|@P 1@$.j.2@3@4@5@5@5@6@7@8@9@0@~@a@b@b@c@d+{@d@e@f@{.8 8                       ",
"                          . . . S+g@Z.$ $ h@i@j@k@f+1@$.$.l@m@n@0@0@0@0@~@o@p@q@r@s@m.5.t@u@{@{@v@w@{.8 8                       ",
"                          . . . . 9 Z.$ $ $ h@x@y@z@A@B@m.m.m.C@!.0@r@~@~@o@p@q@r@s@m.5.t@d+D@E@F@G@{.8 8                       ",
"                          . . . . 9 Z.$ $ $ ; H@I@J@K@L@b@b@b@r@M@N@O@V ~@8@9@0@~@a@b@b@c@~@P@Q@R@G@{.8 8                       ",
"                          . . . . 9 S@$ $ $ $ 6 T@F+U@V@V V V ~@C@A W@V ~@~@V ~@~@~@V V ~@~@X@Y@Z@G@{.8 `@                      ",
"                          . . . . . *+- ; $ $ $ T@F+ #.#+#+#@###c@q@C@~@$#+@+@+@+@+@+@+@+@+@'.%#&#G@H G G                       ",
"                          . . . . . B+*#> $ $ $ =#F+ #-#D.D.;#>#~@,#'#V )#T T T T !#A T T T ~#{#]#^#$ 6 /#                      ",
"                            . . . . _ b.; $ $ $ (#_#:#<#8 8 [#}#7@|#1#1#m.$.$.$.p@2#3#T $.$.$.4#5#6#7#$ 8#                      ",
"                              . 7+. 9#E D+D+D+$ E 0#a#b#8 c#d#e#f#A T T $.$.$.$.g#h#i#j#k#l#m#n#o#p#q#6 r#w.                    ",
"                              . x.s#t#u#u#u#v#; $ D+w#x#2+3+y#z#A#$.$.$.$.$.$.$.B#C#D#E#F#G#H#I#J#0@K#6 L#w.                    ",
"                              = C+M#N#O#P#Q#R#:+$ D+w#S#T#/+T p@$.j.$.$.$.$.$.$.$.U#V#W#X#Y#Z#`#m# $K#6 r# +                    ",
"                              = .$+$@$#$F+$$%$&$*$/#w#=$-$;$>$p@,$Z+G.$.$.$.$.$.$.$.'$)$!$~${$]$m# $K#E ^$/$                    ",
"                              ($_$:$<$[$F+}$|$1$2$0#w#3$4$5$0@6$i+7$8$j.$.$.$.$.$.$.9$0$a$b$c$d$!# $K#$ H e$                    ",
"                              f$g$h$i$j$F+X+k$l$m$0#w#n$~@~@V N@Z+o$p$E.q$q$)+R $.$.G#r$s$t$u$v$!# $K#$ $ $                     ",
"                              w$x$y$i$j$F+X+8 z$A$B$w#n$~@~@V N@Z+C$D$E$F$F$G$H$$.$.I$J$K$L$M$N$m# $K#$ $ $                     ",
"                              E O$P$i$j$F+X+8 8 Q$0#a#n$~@~@V N@Z+C$c#s.s.s.R$S$j.$.H#T$U$V$W$X$m# $K#$ $ $                     ",
"                              D+Y$P$i$j$F+X+8 8 Z$`$ %.%+%@%p#N@)+#%$%e 8 8 c#%%&%l@*%=%-%;%>%,%'% $K#$ $ $ v.8                 ",
"                              D+)%!%i$j$F+X+8 8 >@2+~%{%;#]%p#N@T ^%&./%8 2+=+(%_%:%<.<%[%[%<%l#S }%q#$ $ E |%8                 ",
"                              D+1%2%3%j$F+X+8 8 4%5%6%7%2+8%p#N@G.*.9%[#8 w 0%a%b%c%d%e%f%f%f%f%g%h%i%$ $ $ |%8                 ",
"                                6 j%k%l%F+m%n%n%o%F+p%-#2+s+^@>$q%r%s%8 ~+t%/.B+B+u%v%9+> > > > > E 6 $ $ $ |%8                 ",
"                                $ w%x%y%z%A%B%B%C%D%E%8 2++#F%G%H%I%J%r.K%L%= M%N%O%P%; $ $ $ $ $ Q%R%$ $ $ |%8                 ",
"                                $ $ S%T%%@U%F+F+V%^@W%8 >@X%Y%Z%`%.  &w..&9 = b.+&@&#&            $&%&$ $ 6 |%8                 ",
"                                $ $ $ &&*&=&-&;&>&,&'&)&|%!&~&{&]&B+a%w.^&.&@ /&H O.8             8 (&$ _&:&(&8                 ",
"                                    $ <&[&}&|&|&i$^@'&1&{.2&3&4&5&      6&7&                            8&9&)&8                 ",
"                                    $ $ Y 0&k%k%k%a&b&c&; d&e&f&r.      >@>@                              8 8 8                 ",
"                                        $ g&h&h&h&i&j&k&$ l&m&                                                                  ",
"                                        $ $ $ $ $ > n&o&6 p&q&                                                                  ",
"                                                                                                                                ",
"                                                                                                                                ",
"                                                                                                                                ",
"                                                                                                                                ",
"                                                                                                                                ",
"                                                                                                                                ",
"                                                                                                                                "};
