/* XPM */
static char * GameBoyAdvance_OnePiece_Collections_ezgif_com_effects_xpm[] = {
"40 38 16 1",
" 	c None",
".	c #FF8000",
"+	c #F8F8F8",
"@	c #F0F870",
"#	c #000000",
"$	c #D8C830",
"%	c #808080",
"&	c #B8B8B8",
"*	c #006800",
"=	c #F80000",
"-	c #F8B088",
";	c #80C0F8",
">	c #C87800",
",	c #00C860",
"'	c #904800",
")	c #FFFFFF",
"                                        ",
"                                        ",
"                                        ",
"        +++                             ",
"       ++++++                           ",
"       @@@++@             ########      ",
"        @+++$            #%++&+&&%#     ",
"      $++@@+@ ++         #&%%%%%%&#     ",
"      @++@*+*+++@    ##  #+++%+%&+#     ",
"       @+@****@@    #=-# #;;;%;%;;#     ",
"         +******###  #=# #%;;;;;;%#     ",
"          +**###=+=##-=# #;;%%%%%;#     ",
"           ##@@#===+==->##%;;%;%;;#     ",
"         ##@@,@@>----->$>##;;%;%;%#     ",
"        #$@===@@,>>>>>$,>>>#;%;;;#      ",
"        #@@===>,@@$$$$$@>>>#;%%%;#      ",
"       #@@@@-=>@@$,>@+>>@$$>#%;;%#      ",
"     ##>$$@==>$@@@$>+>+>$$>>###%##      ",
"    #++$$@@@>>@@$$$>+>+>$$$>>#+####     ",
"   #+++$>@$@$@@@@>>$>+@>$>>>#+++###     ",
"   #&++++$>$>$@$>$@@$#>>$##@+++&##      ",
"   ##&++++++$>>++>>##@###@++++&##       ",
"   ####&&&++++++++++++++++&&&####       ",
"    #######%%&&&&&&&&&&%%#######        ",
"      ######################*###        ",
"         ################*###'>'#       ",
"           ######*****####'>'>>'##      ",
"          #%&&&&&#####'>'>''>'####      ",
"          #%&&&&&&+++&#>>'#######       ",
"          #+%%%%&+#############         ",
"          ##+++++###########            ",
"           ########                     ",
"             ####                       ",
"                                        ",
"                                        ",
"                                        ",
"                                        ",
"                                        "};
