/* XPM */
static char * Bridge_All_ezgif_com_effects_xpm[] = {
"53 60 8 1",
" 	c None",
".	c #000000",
"+	c #161C2E",
"@	c #161C2E",
"#	c #B48355",
"$	c #866353",
"%	c #DAB570",
"&	c #FFFFFF",
"                                                     ",
"                                                     ",
"                                                     ",
"    @@@@@@@@@@@@@  @@@@@@@@@@@@@@  @@@@@@@@@@@@@  @@@",
"@@@@@@@@@@@@@@@@@@@@@@@@@@@@@@@@@@@@@@@@@@@@@@@@@@@@@",
"@@@####@@$######@@@@########@@##@@@@#######@@##@@@@##",
"@@######@$#######@@##########@###@@#########@###@@###",
"@@######@########@@##########@###@@#########@###@@##$",
"@@######@########@@##########@###@@#########@###@@##$",
"@@######$####@###@@##########@###@@#########@###@@##$",
"@@######$####@###@@##########@###@@#########@###@@##$",
"@@######$####@###@@##########@###@@#########@###@@##$",
"@@######$####@###@@##############@@#############@@##$",
"@@$##########@###@@##############@@#############@@##$",
"@@$#########@$###@@#########$####@@########$####@@##$",
"@@$#########@$#$#@@#########$####@@########$####@@##$",
"@@$#########@$$$#@@#########$####@@########$####@@###",
"@@$#########@@$$#@@#########$####@@########$####@@###",
"@@$#########$@$$#@@#########@###$@@########@###$$@###",
"@@$#########$@$$$@@#########@###$@@########@###$$@###",
"$@$#########$@$$$@@#########@###$@@########@###$$@###",
"$@$#########$@$$$@$#########@###$@$########@###$$@###",
"$@$#########$@$$$@$#########@###$@$########@###$$@###",
"$@$##########@$$$@$#########@###$@$########@###$$@###",
"$@$##########@$$$@$#########@###$@$########@###$$@###",
"$@$##########@##$@$#########@###$@$########@###$$@###",
"$@$##########@##$@$#########@###$@$########@###$$@###",
"$@$##########$##$@$#########@###$@$########@###$$@###",
"$@$##########$###@$$###@####@###$@$###@####@###$$@###",
"$@###########$###@$$###@####@###$@$###@####@###$$@$##",
"$@###########$###@$$###@####@@##$@$###@####@@##$$@$##",
"$@###########$###@$$###@$###$@##$@$###@$###$@##$@@$##",
"$@###############@$$###@$###$@##$@$###@$###$@##$@@$##",
"$@######@########@@$###$@###$@##$@@###$@###$@##$@@$##",
"@@######@$#######@@$###$@###$@###@@###$@###$@###@@$##",
"@@######@$#######@@$###@@###$$###@@###@@###$$###@@$##",
"@@######$$#######@@$###@$###$$###@@###@$###$$###@@$##",
"@@######$$#######@@$###@$###$$###@@###@$###$$###@@$##",
"@@######$$#######@@$###@$###$$###@@###@$###$$###@@$#$",
"@@######$@#######@@$##$@$########@@##$@$########@@$#$",
"@@######$@#######@@###$@$########@@##$@$########@@$#$",
"@@######$@#######@@###$@$########@@##$@$########@@$$$",
"@@#######@#######@@###$@$########@@##$@$########@@$$$",
"@@#######@#######@@###$@#########@@##$@#########@@#$$",
"@@#######@#######@@####@#########@@###@#########@@#$$",
"@@#######@###@###@@####@#####@###@@###@#####@###@@##$",
"@@#######@###@###@@####@#####@###@@###@#####@###@@###",
"@@#######@%%%@###@@####@#####@#%%@@###@#####@#%%@@###",
"@@@%%%%%%@%%%@%%@@@@%%%@%%%%%@%%@@@%%%@%%%%%@%%@@@@##",
"@@@@@@@%%@%%@@@@@@@@@@@@@@@@@@@@@@@@@@@@@@@@@@@@@@@@@",
"@@@@@@@@@@@@@@@@@@@@@@@@$$$@@@@@@@@@@@@$$$@@@@@@@@@@@",
"@@$$$$$$$$$$$$$$$@@$$$$$$$$$$$$$$@@$$$$$$$$$$$$$@@$$$",
"@@@$$$$$$$$$$$$$@@@@$$$$$$$$$$$$@@@@$$$$$$$$$$$@@@@$$",
"@@@@@@@@@@@@@@@@@@@@@@@@@@@@@@@@@@@@@@@@@@@@@@@@@@@@@",
"  @@@@@@@@@@@@@@@  @@@@@@@@@@@@@@  @@@@@@@@@@@@@  @@@",
"                                                     ",
"                                                     ",
"                                                     ",
"                                                     ",
"                                                     "};
