/* XPM */
static char * GameBoyAdvance_OnePiece_MonkeyDLuffy_ezgif_com_png_to_jpg_converter_xpm[] = {
"46 66 16 1",
" 	c None",
".	c #FFFFFF",
"+	c #000000",
"@	c #F8E808",
"#	c #C89800",
"$	c #A04800",
"%	c #D88828",
"&	c #F8F8F8",
"*	c #F8C890",
"=	c #989898",
"-	c #401000",
";	c #980000",
">	c #F84030",
",	c #206088",
"'	c #5098C8",
")	c #FFFFFF",
"                                              ",
"                                              ",
"                                              ",
"                                              ",
"                                              ",
"                                              ",
"                                              ",
"                                              ",
"                                              ",
"                                              ",
"                     ++++                     ",
"                   ++@@@@++                   ",
"                  +@@@@@@@@+                  ",
"                 +@@######@@+                 ",
"                 +##++++#+##@+                ",
"                +#+++++++++###+               ",
"               +++++++$+++++##+               ",
"              + +#+%++%++++++##+              ",
"                +#+&%*+*&%+++##+              ",
"               + +++&*%&+&%++##+              ",
"                 ++&***=&=%+++#+              ",
"           +++   ++%-******+*+#+              ",
"          +**%+   +********%*+#+              ",
"         +**$%+    +*+****%++++               ",
"        +***%++     +****%+##+ ++++           ",
"        +*$-%+%+     +$$%+#++ +***$+          ",
"        +**%-%%+   ++++%;;+  +*++$%+          ",
"        +*-%+++   +%+>+;>>;+ +*+**%+          ",
"        ++%-++   +%%+>@>>>;*++%+-$%+          ",
"          ++$$+ +%%+>>>>>>;**++***%+          ",
"           +$$$+%%$+>>>>>;+%**+--$%+          ",
"            +$$$$$++>@>>>;++%%++%%+           ",
"             +$$++ +>>>>>;+ +%+%%+            ",
"              ++  +>>>>>>;+  +%%+             ",
"                  +>>@>>>;+   ++              ",
"                  +;;+;>>;+                   ",
"                  +;+,++;;;+                  ",
"                  ++,,,,++++                  ",
"                 +,,'''''',+                  ",
"                 +,,,,,''''+                  ",
"                 +,,,,,,,,',+                 ",
"                +,,,,,++,,''+                 ",
"                +,,,,+ +,,,',+                ",
"                +,,,,+  +,,''+                ",
"               +,,,,+    +,,',+               ",
"               +===,+    +,,''+               ",
"               +++==+     +,&&&+              ",
"                +%+++     +=---+              ",
"                +%%+       ++**+              ",
"                +%%+        +**+              ",
"                +%%+         +%%+             ",
"                +%$+         +%*+             ",
"               +%%+           +**+            ",
"              +%%%+           +***+           ",
"            ++%%%%$+          +***%+          ",
"          ++%+%%%%$+         ++++%+++         ",
"         +%%%$+$$$$+         ++**++**+        ",
"         ++++++++++          +%***+**%+       ",
"                              +++++++++       ",
"                                              ",
"                                              ",
"                                              ",
"                                              ",
"                                              ",
"                                              ",
"                                              "};
