/* XPM */
static char * GameBoyAdvance_OnePiece_Collections_ezgif_com_effects (1)_xpm[] = {
"40 40 16 1",
" 	c None",
".	c #FF8000",
"+	c #000000",
"@	c #808080",
"#	c #F8F8F8",
"$	c #F0F870",
"%	c #D8C830",
"&	c #C87800",
"*	c #904800",
"=	c #B8B8B8",
"-	c #E08800",
";	c #F8F800",
">	c #F80000",
",	c #00C860",
"'	c #006800",
")	c #FFFFFF",
"                                        ",
"                                        ",
"                                        ",
"                                        ",
"                      +++++             ",
"     ++       +++     +@#@+             ",
"    +$$+    ++$$%+  +++++++             ",
"    +%++++++$$$%$%++&&&**+              ",
"     +@=###=+%%+$%++++++++++++          ",
"     @####++=++%%+&&&&&******+          ",
"    +#####++=++++-;;--$+$$$%+           ",
"    ++=+###==++>>>>>>++#+$$+   +++      ",
"    +#+###+==+-;;;;;;--##+%+   +@=+     ",
"    ++#+++==+%#++@++@##++$+   +&++++    ",
"     +=====++%#+@#+@#++$$%+  ++++&&+    ",
"      +++++@@++#+###+$$$%%+++**&&++     ",
"         +==@+@+@+@+#+++%%+**>>$>+      ",
"         +==@++#+#+++===+%+>$>>$>+      ",
"         +##@++++++@%+=+%%+>$>>$>+      ",
"       ++@##@+######@+@%%%+>$>>$>+      ",
"     ++##@##@+#+#+#@=#@+%+>,>$>>$>+     ",
"     +#++####@+++++@#+#+%+,-,+++$>+     ",
"     +++++++#=+#####++#++++,,+''++++    ",
"     +#+@@+++#@+===###+++&+##@+''''+    ",
"    +##+@@+@+##+++@#=###+&+#@@=+''+     ",
"    +#&++++@++##+&@#+@#++&+#+#@=+'+     ",
"    +&&++@@+++@##+@#++=#+&###=+@=+      ",
"    +&+######++@###+**+#+&#+==+=+=+     ",
"     +#++++++##++++*&**#&++**====++     ",
"     +&@*##+@@@@@@@@@@#=@@***=*+@=+     ",
"      +@@&#@+@@@@@@@@@#@@@@@@@**+@+     ",
"      +@&*##+&&&&&&&******@@=@@**+      ",
"       +&*&#&*******++********@@@+      ",
"       +***##+&&&&*****++++*****+       ",
"        ++*+##+*************++++        ",
"          ++++++++++++++++++++          ",
"                                        ",
"                                        ",
"                                        ",
"                                        "};
