/* XPM */
static char * Game Boy Advance _ One Piece _ Collections (2)_xpm[] = {
"64 64 14 1",
" 	c #47ABA9",
".	c #000000",
"+	c #808080",
"@	c #F8F8F8",
"#	c #D8C830",
"$	c #F0F870",
"%	c #904800",
"&	c #C87800",
"*	c #B8B8B8",
"=	c #E08800",
"-	c #F8F800",
";	c #F80000",
">	c #00C860",
",	c #006800",
"                                                                ",
"                                                                ",
"                                                                ",
"                                                                ",
"                 .........                                      ",
"                 .........                                      ",
"                 ..++@@+..          .....              ...      ",
"                 ..++@@+..          .....              ...      ",
"                 .............    ..##$$$....        ..$$$..    ",
"                   ..%%%&&&&&&....##$$##$$$$$...........##..    ",
"                   ..%%%&&&&&&....##$$##$$$$$...........##..    ",
"           .......................##$$..###..**@@@@@@**+..      ",
"           .......................##$$..###..**@@@@@@**+..      ",
"           ..%%%%%%%%%%%&&&&&&&&&&..####...**....@@@@@@@++      ",
"           ..%%%%%%%%%%%&&&&&&&&&&..####...**....@@@@@@@++      ",
"             ..##$$$$$$.$$====----==.......**....@@@@@@@@@..    ",
"             ..##$$$$$$.$$====----==.......**....@@@@@@@@@..    ",
"    .....      ..$$$$..@....;;;;;;;;;;;;...****@@@@@@..*....    ",
"    .....      ..$$$$..@....;;;;;;;;;;;;...****@@@@@@..*....    ",
"  ..**++.      ..##..@@@====------------=..****..@@@@@@.@@..    ",
"  ..**++.      ..##..@@@====------------=..****..@@@@@@.@@..    ",
"........&..      ..$$...@@@@++....++....@##..****......@....    ",
"........&..      ..$$...@@@@++....++....@##..****......@....    ",
"..&&&&.......    ..##$$$....@@++..@@++..@##....*********..      ",
"  ....&&&%%%%......####$$$$$..@@@@@@..@@...++++.........        ",
"  ....&&&%%%%......####$$$$$..@@@@@@..@@...++++.........        ",
"    ..;;$;;;;%%%%..####.....@@..++..++..+..++****..             ",
"    ..;;$;;;;%%%%..####.....@@..++..++..+..++****..             ",
"    ..;;$;;;;$$;;..##..*****......@@..@@...++****..             ",
"    ..;;$;;;;$$;;..##..*****......@@..@@...++****..             ",
"    ..;;$;;;;$$;;..####.**..##++...........++@@@@..             ",
"    ..;;$;;;;$$;;..####.**..##++...........++@@@@..             ",
"    ..;;$;;;;$$;;..#####++..++@@@@@@@@@@@..++@@@@++....         ",
"    ..;;$;;;;$$;;..#####++..++@@@@@@@@@@@..++@@@@++....         ",
"  ..;;$$;;;$$;;>>;;..##.++@@**++@@..@@..@..++@@@@++@@@@...      ",
"  ..;;$$;;;$$;;>>;;..##.++@@**++@@..@@..@..++@@@@++@@@@...      ",
"  ..;;$$.....>>==>>..##.@@..@@++.........++@@@@@@@@....@..      ",
"  ..;;$$.....>>==>>..##.@@..@@++.........++@@@@@@@@....@..      ",
"........,,,..>>>>.......@@....@@@@@@@@@@.**@@.............      ",
"........,,,..>>>>.......@@....@@@@@@@@@@.**@@.............      ",
"..,,,,,,,..++@@@@..&&.....@@@@@@******..+@@......++++..@..      ",
"  ..,,,,.**++++@@..&&..@@@@@**@@++......@@@..++..++++..@@@..    ",
"  ..,,,,.**++++@@..&&..@@@@@**@@++......@@@..++..++++..@@@..    ",
"  ..,,..*++@@..@@..&&...@@++..@@++&&..@@@....++........&@@..    ",
"  ..,,..*++@@..@@..&&...@@++..@@++&&..@@@....++........&@@..    ",
"    ..**+..**@@@@@@&&..@**....@@++..@@@@+......++++....&&&..    ",
"    ..**+..**@@@@@@&&..@**....@@++..@@@@+......++++....&&&..    ",
"  ..**..*..****..@@&&..@..%%%%..@@@@@@++...@@@@@@@@@@@@.&&..    ",
"  ..**..*..****..@@&&..@..%%%%..@@@@@@++...@@@@@@@@@@@@.&&..    ",
"  ....*******%%%%....&&@%%%%&&%%........@@@............@..      ",
"  ....*******%%%%....&&@%%%%&&%%........@@@............@..      ",
"  ..**++.%%**%%%%%%++++*@@+++++++++++++++++++..@@@@%%++&..      ",
"  ..**++.%%**%%%%%%++++*@@+++++++++++++++++++..@@@@%%++&..      ",
"  ..++..%%%+++++++++++++@@+++++++++++++++++..++@@&&++++.        ",
"  ..++..%%%+++++++++++++@@+++++++++++++++++..++@@&&++++.        ",
"    ..%%%++++**++++%%%%%%%%%%%&&&&&&&&&&&&&..@@@@%%&&++.        ",
"    ..+++++%%%%%%%%%%%%%%%....%%%%%%%%%%%%%&&@@&&%%&&..         ",
"    ..+++++%%%%%%%%%%%%%%%....%%%%%%%%%%%%%&&@@&&%%&&..         ",
"      ..%%%%%%%%%.......%%%%%%%%%%&&&&&&&..@@@@%%%%%%..         ",
"      ..%%%%%%%%%.......%%%%%%%%%%&&&&&&&..@@@@%%%%%%..         ",
"        .......%%%%%%%%%%%%%%%%%%%%%%%%%.@@@@..%%....           ",
"        .......%%%%%%%%%%%%%%%%%%%%%%%%%.@@@@..%%....           ",
"           ......................................               ",
"           ......................................               "};
